<svg xmlns="http://www.w3.org/2000/svg" viewBox="0 0 512 512">
  <rect width="512" height="512" rx="110" fill="#7B6FD4"/>
  <rect x="100" y="140" width="312" height="232" rx="20" fill="white" opacity="0.15"/>
  <rect x="100" y="140" width="312" height="52" rx="20" fill="white" opacity="0.25"/>
  <rect x="100" y="172" width="312" height="20" fill="white" opacity="0.25"/>
  <line x1="178" y1="140" x2="178" y2="372" stroke="white" stroke-width="2" opacity="0.2"/>
  <line x1="256" y1="140" x2="256" y2="372" stroke="white" stroke-width="2" opacity="0.2"/>
  <line x1="334" y1="140" x2="334" y2="372" stroke="white" stroke-width="2" opacity="0.2"/>
  <line x1="100" y1="222" x2="412" y2="222" stroke="white" stroke-width="2" opacity="0.2"/>
  <line x1="100" y1="272" x2="412" y2="272" stroke="white" stroke-width="2" opacity="0.2"/>
  <line x1="100" y1="322" x2="412" y2="322" stroke="white" stroke-width="2" opacity="0.2"/>
  <!-- checkmarks -->
  <rect x="112" y="232" width="28" height="28" rx="6" fill="#5BA898"/>
  <path d="M118 246 l6 6 10-10" stroke="white" stroke-width="3" stroke-linecap="round" stroke-linejoin="round" fill="none"/>
  <rect x="190" y="232" width="28" height="28" rx="6" fill="#5BA898"/>
  <path d="M196 246 l6 6 10-10" stroke="white" stroke-width="3" stroke-linecap="round" stroke-linejoin="round" fill="none"/>
  <rect x="112" y="282" width="28" height="28" rx="6" fill="#5BA898"/>
  <path d="M118 296 l6 6 10-10" stroke="white" stroke-width="3" stroke-linecap="round" stroke-linejoin="round" fill="none"/>
  <rect x="268" y="232" width="28" height="28" rx="6" fill="#E8C200"/>
  <path d="M274 246 l6 6 10-10" stroke="white" stroke-width="3" stroke-linecap="round" stroke-linejoin="round" fill="none"/>
  <rect x="190" y="282" width="28" height="28" rx="6" fill="#7B6FD4" opacity="0.4"/>
  <rect x="268" y="282" width="28" height="28" rx="6" fill="#7B6FD4" opacity="0.4"/>
  <rect x="346" y="232" width="28" height="28" rx="6" fill="#7B6FD4" opacity="0.4"/>
</svg>